<svg width="712" height="739" viewBox="0 0 712 739" fill="none" xmlns="http://www.w3.org/2000/svg">
<path d="M528.644 439.183C400.105 439.837 379.313 520.102 372.383 587.969L369.233 617.987H343.397L340.247 587.969C333.318 520.102 311.895 439.836 187.766 439.183C166.974 394.806 158.152 358.915 158.152 318.456C158.152 217.309 238.174 122.684 356.629 122.684C475.086 122.684 553.847 216.653 553.847 319.112C553.847 358.915 550.067 394.806 528.644 439.183ZM355.371 0C160.044 0 0 165.755 0 368.701C0 572.307 160.044 738.059 355.371 738.059C552.586 738.059 712 572.307 712 368.701C712 165.755 552.586 0 355.371 0Z" fill="#29B24A"/>
</svg>
