<svg width="150" height="150" viewBox="0 0 150 150" fill="none" xmlns="http://www.w3.org/2000/svg">
<path d="M93.5945 18.8681L99.5945 8.04307C99.6713 7.90436 99.7199 7.7519 99.7378 7.59438C99.7556 7.43686 99.7422 7.27738 99.6984 7.12503C99.6546 6.97268 99.5812 6.83046 99.4824 6.70648C99.3836 6.5825 99.2614 6.47919 99.1227 6.40245C98.9839 6.32571 98.8315 6.27704 98.674 6.25922C98.5164 6.2414 98.357 6.25478 98.2046 6.2986C98.0523 6.34242 97.91 6.41581 97.7861 6.5146C97.6621 6.61338 97.5588 6.73561 97.482 6.87432L91.4195 17.8118C86.2443 15.5428 80.6548 14.3712 75.0039 14.3712C69.353 14.3712 63.7636 15.5428 58.5883 17.8118L52.5258 6.87432C52.3708 6.59253 52.1102 6.38385 51.8014 6.29418C51.4925 6.20451 51.1607 6.24121 50.8789 6.3962C50.5971 6.55118 50.3884 6.81176 50.2988 7.12061C50.2091 7.42946 50.2458 7.76128 50.4008 8.04307L56.4008 18.8681C50.692 21.6836 45.8687 26.0168 42.4598 31.3925C39.051 36.7682 37.1882 42.9787 37.0758 49.3431H112.932C112.818 42.9774 110.954 36.7659 107.543 31.3901C104.132 26.0144 99.3057 21.6819 93.5945 18.8681ZM57.5008 35.4618C56.8738 35.4618 56.2609 35.2758 55.7397 34.9274C55.2184 34.5789 54.8123 34.0836 54.5726 33.5042C54.333 32.9249 54.2706 32.2874 54.3934 31.6726C54.5162 31.0577 54.8186 30.4931 55.2624 30.0502C55.7061 29.6073 56.2713 29.306 56.8864 29.1844C57.5015 29.0629 58.1388 29.1265 58.7177 29.3673C59.2966 29.6081 59.7911 30.0152 60.1385 30.5372C60.486 31.0591 60.6708 31.6723 60.6695 32.2993C60.6679 33.1386 60.3333 33.943 59.7392 34.5359C59.1451 35.1288 58.3401 35.4618 57.5008 35.4618ZM92.5133 35.4618C91.8863 35.4618 91.2734 35.2758 90.7522 34.9274C90.2309 34.5789 89.8248 34.0836 89.5851 33.5042C89.3455 32.9249 89.2831 32.2874 89.4059 31.6726C89.5287 31.0577 89.8311 30.4931 90.2749 30.0502C90.7186 29.6073 91.2838 29.306 91.8989 29.1844C92.514 29.0629 93.1513 29.1265 93.7302 29.3673C94.3092 29.6081 94.8036 30.0152 95.151 30.5372C95.4985 31.0591 95.6833 31.6723 95.682 32.2993C95.6804 33.1386 95.3458 33.943 94.7517 34.5359C94.1576 35.1288 93.3526 35.4618 92.5133 35.4618ZM37.0633 107.318C37.0616 108.525 37.2982 109.72 37.7594 110.835C38.2206 111.95 38.8974 112.963 39.7509 113.816C40.6045 114.669 41.618 115.345 42.7334 115.806C43.8488 116.266 45.0441 116.502 46.2508 116.499H52.332V135.249C52.332 137.504 53.2279 139.667 54.8225 141.262C56.4172 142.857 58.58 143.752 60.8352 143.752C63.0903 143.752 65.2531 142.857 66.8478 141.262C68.4424 139.667 69.3383 137.504 69.3383 135.249V116.499H80.6758V135.249C80.6758 137.504 81.5713 139.666 83.1654 141.26C84.7594 142.854 86.9214 143.749 89.1758 143.749C91.4301 143.749 93.5921 142.854 95.1862 141.26C96.7802 139.666 97.6758 137.504 97.6758 135.249V116.499H103.763C104.968 116.5 106.162 116.263 107.275 115.803C108.389 115.342 109.401 114.666 110.253 113.814C111.105 112.962 111.781 111.95 112.242 110.836C112.702 109.723 112.939 108.529 112.938 107.324V52.3431H37.0633V107.318ZM25.3945 50.8806C23.1401 50.8839 20.9791 51.7813 19.3856 53.376C17.792 54.9707 16.8962 57.1324 16.8945 59.3868V94.8181C16.8945 95.9343 17.1144 97.0396 17.5416 98.0709C17.9687 99.1021 18.5948 100.039 19.3841 100.828C20.1734 101.618 21.1105 102.244 22.1417 102.671C23.173 103.098 24.2783 103.318 25.3945 103.318C26.5108 103.318 27.6161 103.098 28.6473 102.671C29.6786 102.244 30.6156 101.618 31.4049 100.828C32.1942 100.039 32.8203 99.1021 33.2475 98.0709C33.6747 97.0396 33.8945 95.9343 33.8945 94.8181V59.3868C33.8912 57.1335 32.9946 54.9734 31.4013 53.3801C29.8079 51.7867 27.6479 50.8901 25.3945 50.8868V50.8806ZM124.595 50.8806C122.34 50.8839 120.179 51.7813 118.586 53.376C116.992 54.9707 116.096 57.1324 116.095 59.3868V94.8181C116.095 95.9343 116.314 97.0396 116.742 98.0709C117.169 99.1021 117.795 100.039 118.584 100.828C119.373 101.618 120.31 102.244 121.342 102.671C122.373 103.098 123.478 103.318 124.595 103.318C125.711 103.318 126.816 103.098 127.847 102.671C128.879 102.244 129.816 101.618 130.605 100.828C131.394 100.039 132.02 99.1021 132.448 98.0709C132.875 97.0396 133.095 95.9343 133.095 94.8181V59.3868C133.091 57.1335 132.195 54.9734 130.601 53.3801C129.008 51.7867 126.848 50.8901 124.595 50.8868V50.8806Z" fill="#151515"/>
</svg>
