<svg width="150" height="150" viewBox="0 0 150 150" fill="none" xmlns="http://www.w3.org/2000/svg">
<path d="M106.564 126.75C100.439 132.688 93.7513 131.75 87.3138 128.937C80.5013 126.062 74.2513 125.937 67.0638 128.937C58.0638 132.812 53.3138 131.688 47.9388 126.75C17.4388 95.3125 21.9388 47.4375 56.5638 45.6875C65.0013 46.125 70.8763 50.3125 75.8138 50.6875C83.1888 49.1875 90.2513 44.875 98.1263 45.4375C107.564 46.1875 114.689 49.9375 119.376 56.6875C99.8763 68.375 104.501 94.0625 122.376 101.25C118.814 110.625 114.189 119.938 106.501 126.813L106.564 126.75ZM75.1888 45.3125C74.2513 31.375 85.5638 19.875 98.5638 18.75C100.376 34.875 83.9388 46.875 75.1888 45.3125Z" fill="black"/>
</svg>
