<svg width="712" height="1022" viewBox="0 0 712 1022" fill="none" xmlns="http://www.w3.org/2000/svg">
<path d="M196.049 756.918C227.573 796.344 259.68 845.918 276.482 875.862C296.943 914.789 305.428 941.073 320.649 988.152C329.549 1013.94 338.033 1021.76 355.833 1021.76C375.297 1021.76 384.197 1008.61 391.018 988.152C405.241 943.985 416.22 910.381 433.605 878.357C500.646 751.927 609.941 662.095 671.493 538.992C671.493 538.992 712.001 463.799 712.001 358.496C712.001 260.346 672.075 192.141 672.075 192.141L196.298 757.75L196.049 756.918Z" fill="#34A853"/>
<path d="M34.6838 525.684C73.0288 613.02 146.142 689.544 196.049 756.918L460.554 443.338C460.554 443.338 423.207 492.246 355.75 492.246C280.557 492.246 219.339 432.358 219.339 356.667C219.339 304.597 250.364 268.498 250.364 268.498C55.7278 297.444 66.5409 344.606 34.1016 525.517L34.6838 525.684Z" fill="#FBBC04"/>
<path d="M463.881 16.3857C552.049 44.7494 626.909 104.554 671.825 191.891L460.554 443.92C460.554 443.92 491.579 407.654 491.579 355.751C491.579 278.479 426.368 220.171 355.999 220.171C289.208 220.171 251.195 268.498 251.195 268.498C267.415 231.567 435.018 28.9456 464.131 16.4689L463.881 16.3857Z" fill="#4285F4"/>
<path d="M82.9258 127.262C135.494 64.7123 227.655 0 354.917 0C416.386 0 463.048 16.3028 463.048 16.3028L250.945 268.332C236.638 260.571 97.066 151.883 82.9258 126.929V127.262Z" fill="#1A73E8"/>
<path d="M34.6851 525.683C34.6851 525.683 0 456.811 0 357.663C0 263.673 36.7646 181.327 83.1778 128.093L251.197 269.495L34.9347 525.683H34.6851Z" fill="#EA4335"/>
</svg>
