<svg width="227" height="135" viewBox="0 0 227 135" fill="none" xmlns="http://www.w3.org/2000/svg">
<path d="M217.635 134.715H192.851C183.475 134.715 180.65 127.12 163.841 110.301C149.151 96.1436 142.947 94.3834 139.231 94.3834C134.092 94.3834 132.69 95.7959 132.69 102.869V125.165C132.69 131.195 130.735 134.726 114.98 134.726C99.6957 133.699 84.874 129.056 71.7358 121.179C58.5976 113.302 47.5187 102.416 39.4119 89.4179C20.1628 65.4602 6.7694 37.3415 0.296875 7.29812C0.296875 3.5822 1.70936 0.213961 8.79353 0.213961H33.5664C39.9334 0.213961 42.226 3.0498 44.725 9.60157C56.7529 45.0007 77.2774 75.7929 85.6111 75.7929C88.8055 75.7929 90.1962 74.3804 90.1962 66.4161V29.9522C89.1423 13.3175 80.3088 11.9159 80.3088 5.89651C80.4206 4.30845 81.147 2.8265 82.3338 1.76545C83.5207 0.704395 85.0744 0.147826 86.665 0.213961H125.606C130.93 0.213961 132.69 2.86509 132.69 9.23214V58.4519C132.69 63.765 134.972 65.5252 136.58 65.5252C139.775 65.5252 142.23 63.765 148.086 57.9195C160.64 42.6101 170.896 25.5536 178.531 7.28726C179.313 5.09414 180.79 3.21685 182.738 1.94173C184.686 0.666606 186.998 0.0636477 189.32 0.224825H214.104C221.536 0.224825 223.111 3.94076 221.536 9.24301C212.522 29.4352 201.368 48.6025 188.266 66.4161C185.593 70.4906 184.529 72.6093 188.266 77.3901C190.722 81.106 199.414 88.364 205.249 95.2635C213.745 103.738 220.797 113.539 226.132 124.274C228.261 131.184 224.708 134.715 217.635 134.715Z" fill="white"/>
</svg>
