<svg width="150" height="150" viewBox="0 0 150 150" fill="none" xmlns="http://www.w3.org/2000/svg">
<g clip-path="url(#clip0_407_2)">
<path d="M150 74.9997V74.9623C150 52.7685 140.338 32.8373 124.994 19.131L124.919 19.0685C124.729 18.8642 124.518 18.6818 124.288 18.5248L124.275 18.5185C110.647 6.55306 93.1226 -0.0293387 74.9875 0.00600094C56.0375 0.00600094 38.7375 7.0435 25.55 18.656L25.6313 18.5873C25.4723 18.7078 25.3258 18.8439 25.1938 18.9935C17.2658 26.0134 10.92 34.6441 6.57663 44.3016C2.23329 53.9591 -0.00841805 64.4293 2.37542e-05 75.0185C2.37542e-05 97.206 9.65002 117.137 24.9813 130.85L25.0563 130.912C25.2548 131.137 25.4769 131.341 25.7188 131.519L25.7313 131.525C39.3553 143.473 56.8668 150.045 74.9875 150.012C93.1929 150.04 110.78 143.407 124.431 131.362L124.35 131.431C132.415 124.419 138.88 115.756 143.308 106.029C147.735 96.3018 150.022 85.7371 150.013 75.0498V75.006L150 74.9997ZM122.113 123.781C118.397 120.776 114.402 118.134 110.181 115.894L109.775 115.694C113.606 104.65 115.913 91.9185 116.131 78.6748V78.5747H142.763C141.864 95.7085 134.49 111.861 122.131 123.762L122.113 123.781ZM78.575 114.375C86.5938 114.806 94.0875 116.569 101 119.437L100.55 119.275C95.0125 131.9 87.2188 140.575 78.575 142.481V114.375ZM78.575 107.225V78.5747H109C108.759 90.4389 106.701 102.196 102.9 113.437L103.144 112.619C95.3841 109.429 87.1311 107.606 78.75 107.231L78.5813 107.225H78.575ZM78.575 71.4248V42.7747C87.1823 42.3819 95.6561 40.4977 103.619 37.206L103.125 37.3872C106.594 47.506 108.725 59.1685 109 71.2935V71.4248H78.575ZM78.575 35.6247V7.531C87.2188 9.43725 95.0125 18.0748 100.55 30.7373C94.0875 33.4248 86.5938 35.181 78.7563 35.6185L78.575 35.6247ZM96.4125 10.6248C103.777 13.0812 110.665 16.7851 116.775 21.5748L116.631 21.4623C113.863 23.6373 110.756 25.6872 107.481 27.4685L107.131 27.6435C104.485 21.398 100.846 15.6214 96.3563 10.5373L96.4125 10.606V10.6248ZM71.4125 7.54975V35.6247C63.7031 35.2315 56.1182 33.5192 48.9875 30.5622L49.4375 30.7247C55 18.0997 62.7813 9.431 71.425 7.52475L71.4125 7.54975ZM42.8625 27.6248C39.4746 25.802 36.2465 23.6966 33.2125 21.331L33.3625 21.4435C39.2946 16.7945 45.967 13.1772 53.1 10.7435L53.575 10.5998C49.2026 15.5462 45.6399 21.1529 43.0188 27.2123L42.8625 27.6248ZM71.425 42.7685V71.4185H41C41.275 59.1623 43.4063 47.4997 47.1188 36.5622L46.875 37.381C54.6316 40.5652 62.88 42.3857 71.2563 42.7622L71.425 42.7685ZM71.425 78.5685V107.219C62.8177 107.611 54.344 109.496 46.3813 112.787L46.875 112.606C43.4063 102.494 41.275 90.8248 41 78.6997V78.5685H71.425ZM71.425 114.369V142.462C62.7813 140.556 54.9875 131.919 49.45 119.256C55.9125 116.569 63.4063 114.819 71.2438 114.381L71.425 114.369ZM53.6125 139.369C46.2497 136.919 39.3621 133.224 33.25 128.444L33.4 128.556C36.1688 126.381 39.275 124.331 42.55 122.55L42.9 122.375C45.5243 128.623 49.1629 134.394 53.6688 139.456L53.6125 139.394V139.369ZM107.138 122.369C110.763 124.337 113.869 126.381 116.788 128.662L116.638 128.55C110.705 133.199 104.033 136.816 96.9 139.25L96.425 139.394C100.797 134.449 104.36 128.845 106.981 122.787L107.138 122.381V122.369ZM142.763 71.4248H116.131C115.94 58.4932 113.708 45.6729 109.519 33.4372L109.775 34.2997C114.19 31.9751 118.37 29.229 122.256 26.0998L122.106 26.2122C134.439 38.0687 141.817 54.1612 142.75 71.2435L142.756 71.4185L142.763 71.4248ZM27.8875 26.2185C31.4875 29.1435 35.5313 31.8247 39.8188 34.106L40.225 34.306C36.3938 45.3497 34.0875 58.081 33.8688 71.3247V71.4248H7.23127C8.12935 54.291 15.5041 38.1385 27.8625 26.2372L27.8875 26.2185ZM7.23752 78.5747H33.8688C34.0604 91.5063 36.292 104.327 40.4813 116.562L40.225 115.7C35.5313 118.194 31.4938 120.875 27.7438 123.9L27.8938 123.787C15.5609 111.931 8.18355 95.8383 7.25002 78.756L7.24377 78.581L7.23752 78.5747Z" fill="white"/>
</g>
<defs>
<clipPath id="clip0_407_2">
<rect width="150" height="150" fill="white"/>
</clipPath>
</defs>
</svg>
