<svg width="150" height="150" viewBox="0 0 150 150" fill="none" xmlns="http://www.w3.org/2000/svg">
<path d="M75.0059 12.5C109.525 12.5 137.506 40.4813 137.506 75C137.506 109.519 109.525 137.5 75.0059 137.5C63.9608 137.518 53.1101 134.595 43.5684 129.031L12.5309 137.5L20.9809 106.45C15.4128 96.9055 12.4875 86.05 12.5059 75C12.5059 40.4813 40.4872 12.5 75.0059 12.5ZM53.7059 45.625L52.4559 45.675C51.6467 45.7243 50.8558 45.9369 50.1309 46.3C49.453 46.6839 48.834 47.1639 48.2934 47.725C47.5434 48.4313 47.1184 49.0437 46.6622 49.6375C44.3505 52.6431 43.1058 56.3332 43.1247 60.125C43.1372 63.1875 43.9372 66.1687 45.1872 68.9562C47.7434 74.5938 51.9497 80.5625 57.4997 86.0937C58.8372 87.425 60.1497 88.7625 61.5622 90.0063C68.4584 96.0779 76.6763 100.456 85.5622 102.794L89.1122 103.338C90.2684 103.4 91.4247 103.312 92.5872 103.256C94.4074 103.162 96.1848 102.669 97.7934 101.813C98.6119 101.391 99.4107 100.932 100.187 100.437C100.187 100.437 100.456 100.262 100.968 99.875C101.812 99.25 102.331 98.8063 103.031 98.075C103.55 97.5375 104 96.9063 104.343 96.1875C104.831 95.1688 105.318 93.225 105.518 91.6062C105.668 90.3687 105.625 89.6938 105.606 89.275C105.581 88.6063 105.025 87.9125 104.418 87.6188L100.781 85.9875C100.781 85.9875 95.3434 83.6188 92.0184 82.1063C91.6705 81.9543 91.2977 81.8675 90.9184 81.85C90.4908 81.8061 90.0588 81.8542 89.6513 81.9911C89.2438 82.128 88.8703 82.3505 88.5559 82.6437C88.5247 82.6312 88.1059 82.9875 83.5872 88.4625C83.3278 88.811 82.9706 89.0744 82.561 89.2191C82.1513 89.3638 81.7079 89.3833 81.2872 89.275C80.88 89.1658 80.4811 89.028 80.0934 88.8625C79.3184 88.5375 79.0497 88.4125 78.5184 88.1875C74.9314 86.6222 71.6102 84.5072 68.6747 81.9188C67.8872 81.2313 67.1559 80.4812 66.4059 79.7562C63.9471 77.4014 61.8042 74.7375 60.0309 71.8313L59.6622 71.2375C59.3973 70.8385 59.1832 70.4081 59.0247 69.9562C58.7872 69.0375 59.4059 68.3 59.4059 68.3C59.4059 68.3 60.9247 66.6375 61.6309 65.7375C62.3184 64.8625 62.8997 64.0125 63.2747 63.4063C64.0122 62.2188 64.2434 61 63.8559 60.0563C62.1059 55.7813 60.2934 51.525 58.4309 47.3C58.0622 46.4625 56.9684 45.8625 55.9747 45.7437C55.6372 45.7062 55.2997 45.6687 54.9622 45.6437C54.1229 45.6021 53.2818 45.6104 52.4434 45.6688L53.6997 45.6187L53.7059 45.625Z" fill="black"/>
</svg>
