<svg width="712" height="712" viewBox="0 0 712 712" fill="none" xmlns="http://www.w3.org/2000/svg">
<path d="M356 44.5C208.536 44.5 89 164.036 89 311.5C89 385.205 118.864 451.942 167.164 500.256C215.478 548.596 329.3 618.55 335.975 691.975C336.976 702.984 344.946 712 356 712C367.054 712 375.024 702.984 376.025 691.975C382.7 618.55 496.522 548.596 544.836 500.256C593.136 451.942 623 385.205 623 311.5C623 164.036 503.464 44.5 356 44.5Z" fill="#FF4433"/>
<path d="M356.016 404.967C407.628 404.967 449.466 363.128 449.466 311.517C449.466 259.906 407.628 218.067 356.016 218.067C304.406 218.067 262.566 259.906 262.566 311.517C262.566 363.128 304.406 404.967 356.016 404.967Z" fill="white"/>
</svg>
